<svg xmlns="http://www.w3.org/2000/svg" version="1.1" xmlns:xlink="http://www.w3.org/1999/xlink" width="512" height="512" x="0" y="0" viewBox="0 0 100 100" style="enable-background:new 0 0 512 512" xml:space="preserve" class=""><g><path fill="#6bb577" d="M16.247 16.547c-18.429 18.63-18.329 48.777.3 67.206s48.777 18.329 67.206-.3 18.329-48.777-.3-67.206-48.777-18.329-67.206.3zm56.89 24.339-25.841 26.14c-2.204 2.204-5.81 2.204-8.013 0l-1.001-1-3.005-3.006-8.413-8.313c-2.204-2.203-2.204-5.809 0-8.012s5.809-2.204 8.012 0l8.413 8.313 21.835-22.035c2.203-2.203 5.809-2.203 8.012 0 2.204 2.104 2.204 5.71 0 7.913z" opacity="1" data-original="#ff8818" class=""></path></g></svg>